<?xml version="1.0" standalone="no"?>
<!DOCTYPE svg PUBLIC "-//W3C//DTD SVG 20010904//EN"
 "http://www.w3.org/TR/2001/REC-SVG-20010904/DTD/svg10.dtd">
<svg version="1.0" xmlns="http://www.w3.org/2000/svg"
 width="1075.000000pt" height="1015.000000pt" viewBox="0 0 1075.000000 1015.000000"
 preserveAspectRatio="xMidYMid meet">

<g transform="translate(0.000000,1015.000000) scale(0.100000,-0.100000)"
fill="#000000" stroke="none">
<path d="M5083 8894 c-29 -12 -33 -19 -33 -54 0 -33 -3 -40 -20 -40 -17 0 -20
-7 -20 -41 0 -36 2 -40 23 -37 21 3 22 0 30 -117 10 -152 13 -161 43 -192 22
-22 31 -25 70 -19 67 9 82 19 76 56 -4 29 -7 31 -34 28 -44 -7 -55 19 -61 145
-6 118 -12 107 53 111 10 1 15 12 15 36 0 34 -1 35 -42 38 l-43 3 0 50 c0 54
-4 56 -57 33z"/>
<path d="M6357 8850 c-14 -11 -35 -44 -45 -73 -16 -41 -24 -51 -40 -49 -13 2
-21 -4 -26 -20 -9 -36 -7 -48 8 -48 8 0 17 -4 20 -9 5 -7 -34 -182 -63 -288
-9 -32 -8 -33 31 -44 23 -6 44 -7 49 -2 5 5 13 31 19 58 5 28 20 95 33 150
l23 100 37 -3 c26 -3 37 0 37 10 0 7 3 23 6 35 5 17 0 22 -26 28 -30 7 -32 9
-26 38 10 49 28 62 67 48 18 -6 33 -10 34 -9 32 61 28 70 -35 88 -52 15 -74
12 -103 -10z"/>
<path d="M5378 8800 c-60 -32 -82 -85 -82 -200 -1 -78 3 -101 19 -129 41 -70
113 -95 200 -71 53 15 58 20 49 54 -6 24 -8 25 -74 19 -64 -5 -69 -4 -83 18
-8 13 -18 39 -22 57 l-7 32 101 0 c58 0 102 4 106 10 13 20 7 115 -8 152 -8
20 -27 44 -42 54 -40 26 -113 28 -157 4z m98 -58 c18 -11 34 -48 34 -76 0 -25
-2 -26 -60 -26 l-60 0 0 30 c0 49 54 94 86 72z"/>
<path d="M4143 8798 c-25 -12 -33 -35 -22 -66 6 -17 16 -22 43 -22 61 0 88 53
44 84 -26 18 -35 19 -65 4z"/>
<path d="M4392 8780 c-30 -18 -32 -23 -26 -58 5 -31 3 -40 -13 -48 -17 -8 -19
-14 -11 -42 7 -26 13 -32 30 -30 20 3 24 -8 53 -122 17 -69 37 -135 44 -148
23 -43 79 -47 149 -10 18 9 22 17 17 38 -9 36 -20 43 -46 30 -19 -11 -25 -10
-39 8 -19 24 -65 206 -56 227 3 8 16 15 30 15 31 0 37 10 27 46 -8 29 -18 33
-66 23 -16 -3 -22 4 -31 40 -6 25 -15 46 -20 48 -5 2 -24 -6 -42 -17z"/>
<path d="M4858 8783 c-33 -5 -33 0 -9 -158 16 -102 17 -125 5 -152 -11 -27
-19 -33 -43 -33 -20 0 -34 7 -41 20 -6 11 -20 83 -33 161 l-22 141 -40 -7
c-21 -3 -41 -8 -44 -10 -6 -7 23 -212 44 -312 3 -12 17 -35 31 -52 20 -24 34
-31 60 -31 44 0 86 22 109 56 l17 26 17 -23 c12 -18 24 -23 47 -21 l31 3 -17
82 c-10 45 -23 120 -29 167 -25 169 -16 153 -83 143z"/>
<path d="M5980 8782 c-66 -11 -109 -72 -130 -185 -21 -114 9 -194 86 -223 131
-50 224 37 232 215 3 71 0 92 -16 121 -30 54 -100 84 -172 72z m88 -102 c17
-34 7 -152 -19 -202 -16 -31 -25 -38 -49 -38 -40 0 -60 32 -60 95 0 65 25 151
48 165 28 16 65 7 80 -20z"/>
<path d="M6688 8512 c-54 -136 -100 -254 -103 -263 -5 -12 5 -21 35 -33 22 -9
42 -16 44 -16 2 0 18 37 36 83 18 45 36 85 40 90 3 4 26 1 49 -8 113 -40 199
1 241 112 50 134 1 212 -164 262 -37 12 -71 21 -75 21 -3 0 -50 -111 -103
-248z m212 133 c16 -8 34 -24 40 -34 24 -46 -2 -127 -52 -164 -25 -19 -31 -19
-68 -7 -23 7 -43 17 -45 20 -4 7 45 143 65 181 13 23 22 24 60 4z"/>
<path d="M3925 8636 c-27 -22 -28 -26 -18 -59 9 -32 8 -38 -9 -49 -16 -11 -17
-17 -7 -45 9 -28 15 -32 35 -27 13 3 24 4 24 2 0 -3 20 -58 45 -123 64 -169
89 -189 182 -144 45 22 50 33 32 73 -11 24 -13 25 -42 10 -25 -13 -32 -14 -42
-2 -14 14 -85 192 -85 213 0 7 14 18 30 25 33 13 38 35 16 65 -12 17 -17 18
-40 7 -39 -18 -42 -16 -60 33 -10 25 -21 45 -24 45 -4 0 -20 -11 -37 -24z"/>
<path d="M4207 8637 c-35 -8 -38 -12 -34 -36 6 -34 103 -350 110 -357 10 -10
89 17 84 29 -2 7 -28 91 -57 187 -30 96 -56 178 -59 181 -3 3 -23 2 -44 -4z"/>
<path d="M3750 8474 c-91 -30 -120 -60 -120 -124 0 -32 7 -48 33 -76 28 -30
41 -36 102 -45 81 -13 97 -23 93 -58 -3 -26 -31 -46 -80 -56 -24 -5 -28 -10
-28 -42 l0 -36 38 6 c58 7 128 42 148 73 23 34 22 95 0 129 -25 38 -59 55
-126 65 -34 5 -68 14 -76 21 -34 28 2 79 57 79 33 0 36 4 31 40 -4 25 -9 30
-31 29 -14 0 -33 -3 -41 -5z"/>
<path d="M7100 8412 c0 -11 -2 -27 -6 -35 -4 -10 5 -16 34 -21 43 -6 92 -40
92 -62 0 -8 -7 -28 -15 -44 l-15 -29 -43 19 c-46 21 -117 26 -147 10 -29 -16
-60 -74 -60 -114 0 -28 7 -45 30 -68 27 -26 36 -29 82 -27 51 3 53 2 50 -22
-2 -19 3 -28 23 -37 32 -15 45 -15 45 -2 0 15 38 93 92 190 54 95 61 141 28
182 -21 28 -94 62 -152 73 -34 6 -38 5 -38 -13z m35 -224 c29 -13 30 -19 10
-58 -17 -33 -59 -49 -84 -33 -23 14 -26 61 -5 84 20 22 42 24 79 7z"/>
<path d="M3412 8300 c-21 -13 -40 -36 -50 -61 -14 -37 -16 -38 -33 -23 -16 14
-20 14 -48 0 l-30 -16 96 -167 c53 -93 99 -172 103 -176 8 -9 64 16 74 32 4 5
-23 60 -59 122 -36 62 -68 123 -71 136 -8 32 20 73 51 73 29 0 52 -29 130
-167 l57 -102 39 20 c22 10 39 22 39 25 0 18 -166 287 -187 304 -33 25 -69 25
-111 0z"/>
<path d="M3003 8236 l-33 -23 156 -224 c85 -123 159 -228 164 -233 9 -9 80 30
80 45 0 5 -60 94 -132 197 -73 103 -144 204 -158 225 -14 20 -29 37 -35 36 -5
0 -25 -10 -42 -23z"/>
<path d="M7349 8103 c-57 -86 -107 -162 -111 -168 -5 -8 6 -22 30 -37 l37 -25
83 123 c76 115 85 124 114 124 17 0 39 -7 48 -15 16 -15 20 -13 44 16 20 24
24 34 16 44 -17 20 -66 28 -91 15 -21 -12 -22 -11 -16 19 6 27 3 33 -22 45
l-28 15 -104 -156z"/>
<path d="M7660 8064 c-6 -14 -10 -27 -10 -29 0 -1 19 -13 43 -25 69 -36 83
-68 48 -111 -18 -22 -22 -23 -43 -10 -92 58 -141 64 -188 25 -65 -55 -76 -115
-31 -166 25 -28 36 -33 76 -33 45 0 46 -1 41 -27 -4 -21 0 -30 21 -44 26 -17
27 -16 42 7 9 13 43 57 76 97 94 116 115 151 115 194 0 29 -7 44 -36 72 -33
32 -110 76 -134 76 -6 0 -15 -12 -20 -26z m-4 -217 l27 -24 -19 -26 c-22 -31
-46 -41 -80 -33 -35 9 -42 51 -13 82 28 30 50 30 85 1z"/>
<path d="M5343 7848 c-33 -38 -57 -100 -61 -163 -4 -54 -1 -64 22 -92 l26 -31
0 -378 c0 -209 3 -416 7 -461 l6 -83 47 0 47 0 6 68 c4 37 7 244 7 461 l0 393
25 30 c14 16 28 41 31 55 9 34 -24 137 -58 184 -33 46 -73 52 -105 17z"/>
<path d="M7846 7719 c-75 -77 -136 -144 -136 -149 0 -5 14 -18 31 -31 l30 -21
108 106 c60 58 115 106 123 106 9 0 26 -8 38 -18 34 -27 21 -50 -93 -168
l-101 -105 32 -32 32 -31 101 107 c82 87 106 107 129 107 25 0 60 -21 60 -36
0 -19 -35 -62 -121 -149 l-99 -101 33 -33 34 -32 114 121 c63 66 119 131 126
143 20 35 15 64 -16 99 -22 25 -37 32 -72 34 -43 2 -44 2 -42 36 4 53 -45 98
-107 98 -30 0 -32 2 -26 26 7 25 -15 64 -34 64 -4 0 -69 -63 -144 -141z"/>
<path d="M2736 7806 c-30 -28 -36 -40 -36 -74 0 -41 -1 -41 -25 -30 -22 10
-29 8 -50 -12 l-25 -23 138 -141 c75 -78 140 -142 144 -144 3 -2 20 9 37 25
l30 28 -91 95 c-119 125 -124 132 -108 170 14 33 41 46 67 32 10 -6 62 -56
117 -112 l99 -101 28 27 c16 15 29 31 29 34 0 14 -201 219 -234 239 -48 30
-79 27 -120 -13z"/>
<path d="M4680 7689 c-48 -7 -90 -23 -235 -87 -94 -41 -100 -43 -230 -67 -188
-35 -354 1 -465 102 -48 43 -52 30 -7 -29 43 -57 136 -118 222 -147 149 -49
428 -9 660 94 84 37 170 39 240 5 24 -12 65 -46 92 -78 72 -85 111 -119 181
-154 66 -33 172 -51 172 -29 0 6 -9 11 -20 11 -72 0 -214 108 -269 204 -70
125 -208 196 -341 175z"/>
<path d="M5990 7690 c-86 -16 -169 -79 -228 -173 -22 -34 -63 -84 -91 -110
-51 -48 -143 -97 -181 -97 -11 0 -20 -5 -20 -11 0 -19 100 -5 160 23 68 31
133 85 194 159 60 75 114 102 206 101 47 -1 81 -7 107 -20 71 -36 263 -93 373
-110 174 -29 255 -20 378 40 66 32 157 111 181 157 16 28 7 24 -55 -26 -46
-37 -115 -70 -189 -89 -134 -36 -373 4 -545 91 -111 56 -216 80 -290 65z"/>
<path d="M4715 7536 c-5 -2 -35 -12 -65 -21 -30 -9 -86 -32 -125 -50 -271
-127 -530 -152 -671 -64 -48 29 -35 -1 16 -36 111 -77 283 -96 464 -50 106 27
231 76 268 104 52 39 122 63 207 69 l86 7 -38 18 c-35 17 -121 31 -142 23z"/>
<path d="M5961 7528 c-19 -5 -43 -15 -53 -22 -16 -11 -7 -14 64 -19 89 -5 107
-11 208 -69 258 -146 561 -169 726 -55 52 36 79 76 30 43 -145 -94 -395 -71
-697 65 -146 66 -206 78 -278 57z"/>
<path d="M2470 7523 c-23 -8 -70 -55 -86 -85 -8 -15 -14 -42 -14 -61 0 -89
158 -236 255 -237 65 0 156 90 155 156 -1 60 -91 169 -178 213 -39 20 -99 26
-132 14z m101 -101 c54 -35 119 -108 119 -136 0 -25 -28 -56 -52 -56 -57 0
-178 107 -178 158 0 30 26 62 50 62 9 0 36 -13 61 -28z"/>
<path d="M4758 7425 c-66 -23 -167 -79 -243 -135 -116 -84 -192 -115 -320
-128 -77 -8 -79 -9 -50 -21 51 -22 144 -25 215 -6 94 24 155 56 247 129 93 74
219 141 294 157 36 8 47 14 38 20 -26 16 -113 8 -181 -16z"/>
<path d="M5842 7442 c-10 -7 -3 -11 25 -17 86 -16 190 -72 321 -173 137 -106
283 -149 412 -122 33 7 60 16 60 20 0 4 -37 10 -81 14 -113 9 -173 33 -306
122 -159 105 -269 156 -353 161 -36 2 -71 0 -78 -5z"/>
<path d="M4879 7386 c-62 -22 -127 -79 -194 -169 -34 -47 -116 -102 -207 -142
-37 -17 -68 -34 -68 -39 0 -4 33 -6 73 -4 145 8 258 76 343 210 31 48 60 78
103 108 34 22 61 43 61 45 0 10 -76 4 -111 -9z"/>
<path d="M5806 7382 c12 -9 41 -31 66 -48 24 -17 58 -53 74 -79 86 -140 201
-214 347 -223 42 -2 77 -2 77 2 0 3 -35 24 -79 45 -111 54 -165 94 -210 155
-80 107 -172 166 -260 166 -36 -1 -36 -1 -15 -18z"/>
<path d="M8306 7364 c-27 -14 -70 -47 -96 -73 -82 -82 -89 -159 -23 -232 31
-35 80 -69 97 -69 3 0 12 13 20 28 14 27 14 29 -15 46 -30 18 -59 63 -59 91 0
21 30 73 45 79 7 2 38 -29 71 -70 32 -41 64 -74 70 -74 22 0 96 64 114 101 24
45 25 71 6 107 -46 89 -138 115 -230 66z m150 -79 c19 -29 13 -53 -22 -86
l-25 -24 -34 40 c-40 47 -43 68 -12 83 39 19 75 14 93 -13z"/>
<path d="M2086 7338 c-20 -28 -20 -43 0 -62 43 -43 121 8 93 60 -17 32 -71 33
-93 2z"/>
<path d="M4942 7306 c-22 -24 -52 -66 -66 -93 -26 -52 -91 -118 -132 -133 -13
-5 -24 -14 -24 -20 0 -11 25 -7 90 12 52 16 149 95 150 123 0 6 18 41 40 79
22 37 40 70 40 72 0 2 -13 4 -29 4 -21 0 -39 -12 -69 -44z"/>
<path d="M5793 7250 c69 -129 116 -167 240 -194 34 -8 36 7 3 22 -44 20 -105
83 -136 141 -49 90 -93 131 -140 131 -19 0 -16 -9 33 -100z"/>
<path d="M5057 7278 c-8 -18 -18 -48 -22 -66 -4 -18 -23 -48 -42 -67 -44 -43
-37 -54 17 -30 53 24 76 57 85 125 9 67 9 64 -8 68 -8 2 -21 -12 -30 -30z"/>
<path d="M5684 7248 c9 -73 33 -112 83 -133 51 -21 59 -8 20 30 -22 21 -37 48
-42 72 -9 48 -35 93 -53 93 -12 0 -13 -12 -8 -62z"/>
<path d="M5158 7280 c-10 -6 -20 -29 -24 -58 -3 -26 -11 -55 -16 -64 -16 -31
16 -21 35 11 15 26 36 121 26 121 -2 0 -12 -5 -21 -10z"/>
<path d="M5600 7267 c0 -50 38 -127 62 -127 5 0 4 9 -2 19 -5 11 -10 32 -10
48 0 33 -20 75 -37 81 -8 2 -13 -6 -13 -21z"/>
<path d="M5212 7268 c-15 -15 -15 -19 -1 -55 8 -22 12 -24 19 -13 12 18 13 80
2 80 -4 0 -13 -5 -20 -12z"/>
<path d="M5270 7245 c0 -19 4 -35 9 -35 11 0 24 48 16 60 -13 21 -25 8 -25
-25z"/>
<path d="M5490 7245 c0 -19 5 -35 10 -35 6 0 10 16 10 35 0 19 -4 35 -10 35
-5 0 -10 -16 -10 -35z"/>
<path d="M5540 7258 c0 -32 11 -68 20 -68 15 0 22 72 8 81 -21 14 -28 10 -28
-13z"/>
<path d="M2226 7236 l-26 -34 48 -39 c55 -46 252 -196 269 -206 9 -6 53 48 53
66 0 3 -72 59 -159 126 l-159 120 -26 -33z"/>
<path d="M2123 7100 c-21 -36 -30 -37 -73 -5 -37 28 -42 26 -58 -24 -10 -29
-9 -35 11 -52 12 -10 26 -18 30 -19 5 0 6 -13 2 -29 -6 -26 -2 -32 25 -46 29
-15 33 -15 43 0 11 14 26 6 125 -60 135 -90 163 -95 211 -40 17 20 31 40 31
45 0 4 3 15 6 24 4 10 -5 20 -26 31 -18 9 -33 15 -35 13 -1 -2 -8 -13 -14 -25
-6 -13 -19 -23 -28 -23 -16 0 -203 118 -203 128 0 2 9 19 19 36 l20 31 -34 22
-34 23 -18 -30z"/>
<path d="M8591 7078 c-85 -15 -221 -120 -237 -182 -14 -59 32 -129 92 -141 35
-6 35 -7 19 -25 -16 -18 -17 -21 -1 -45 l16 -25 88 61 c48 34 153 106 235 160
81 55 147 103 147 107 0 4 -11 20 -24 37 l-23 29 -65 -42 c-70 -46 -78 -49
-78 -29 0 23 -64 87 -95 95 -16 5 -50 5 -74 0z m81 -105 c37 -33 23 -56 -67
-116 -91 -61 -108 -66 -137 -40 -29 26 -22 62 18 100 72 67 148 90 186 56z"/>
<path d="M5090 6933 c-30 -8 -93 -21 -140 -29 -115 -20 -146 -31 -170 -61 -58
-73 14 -173 180 -251 94 -44 127 -44 215 -2 l70 33 -60 8 c-99 13 -166 31
-235 61 -80 36 -100 53 -100 89 0 24 5 29 36 35 56 10 144 -1 197 -26 53 -25
137 -24 163 1 18 19 2 72 -35 117 -32 39 -50 43 -121 25z m90 -78 c33 -17 38
-30 15 -39 -16 -6 -55 26 -55 44 0 13 6 13 40 -5z"/>
<path d="M5160 6840 c0 -5 5 -10 10 -10 6 0 10 5 10 10 0 6 -4 10 -10 10 -5 0
-10 -4 -10 -10z"/>
<path d="M5592 6935 c-21 -16 -72 -103 -72 -124 0 -17 56 -41 95 -41 20 0 55
10 77 21 52 27 199 39 223 19 20 -17 19 -53 -2 -72 -71 -62 -295 -118 -476
-118 -134 0 -303 -57 -369 -123 -95 -94 -63 -215 80 -311 37 -24 74 -46 83
-48 21 -4 89 33 89 50 0 7 -21 22 -47 33 -61 26 -133 95 -133 127 0 52 30 91
94 121 65 31 92 36 281 51 206 16 339 65 441 162 62 58 75 98 50 147 -22 41
-55 56 -156 70 -47 7 -103 18 -125 26 -74 25 -108 27 -133 10z m52 -80 c-4
-10 -13 -13 -27 -9 -16 5 -19 3 -14 -10 5 -12 1 -16 -16 -16 -21 1 -21 2 6 25
32 28 60 33 51 10z"/>
<path d="M8973 6843 c-20 -8 -16 -68 7 -88 44 -40 98 13 71 71 -10 23 -45 31
-78 17z"/>
<path d="M1940 6810 c-33 -35 -59 -88 -67 -134 -4 -29 -2 -34 18 -39 40 -11
44 -8 58 37 17 59 41 80 81 71 42 -9 46 -26 21 -85 -29 -68 -27 -102 10 -145
90 -102 236 -32 195 94 -8 22 -6 23 18 19 20 -4 31 0 41 16 23 32 18 39 -38
65 -29 13 -70 36 -92 51 -125 85 -198 100 -245 50z m262 -175 c9 -19 7 -29 -6
-50 -20 -31 -49 -32 -77 -4 -22 22 -21 67 2 95 15 18 66 -8 81 -41z"/>
<path d="M8690 6675 c-91 -51 -164 -96 -163 -99 2 -3 11 -22 20 -41 l18 -34
165 92 c91 51 170 96 177 100 17 11 -15 77 -36 76 -9 0 -90 -43 -181 -94z"/>
<path d="M8817 6536 c-88 -36 -138 -75 -159 -123 -24 -55 -12 -107 38 -159
l35 -38 26 27 27 26 -22 24 c-47 50 -20 104 72 148 94 45 137 37 157 -30 11
-36 13 -38 43 -32 40 9 46 43 16 101 -41 81 -124 101 -233 56z"/>
<path d="M1788 6533 c-27 -31 -48 -81 -48 -115 0 -69 68 -133 187 -178 104
-39 178 -20 212 55 39 84 36 108 -15 119 -30 7 -32 5 -38 -28 -13 -71 -82 -85
-175 -36 -31 17 -62 40 -69 51 -15 24 -8 72 14 90 13 10 12 15 -7 36 -27 28
-41 29 -61 6z"/>
<path d="M5613 6507 c-40 -5 -73 -13 -73 -17 0 -4 12 -13 26 -21 41 -21 74
-67 74 -101 0 -65 -51 -115 -158 -157 l-52 -21 2 63 c1 34 1 101 0 150 l-2 87
-40 0 -41 0 3 -152 3 -153 30 3 c21 1 3 -11 -60 -41 -126 -61 -175 -123 -175
-223 0 -73 114 -224 159 -209 16 5 21 15 21 40 0 20 -6 35 -15 38 -8 4 -28 25
-45 48 -34 48 -41 110 -15 146 14 20 75 63 88 63 4 0 8 -66 9 -147 l3 -148 28
3 c15 2 27 2 27 -1 0 -2 -31 -25 -69 -50 -38 -25 -81 -62 -96 -82 -50 -65 -31
-172 43 -239 50 -44 71 20 25 74 -31 37 -33 82 -6 119 33 43 43 38 43 -21 0
-29 3 -76 6 -104 6 -48 8 -51 33 -47 25 4 25 4 -9 -26 -19 -17 -38 -31 -42
-31 -4 0 -19 -21 -34 -46 -24 -40 -26 -53 -22 -112 6 -68 33 -152 49 -152 5 0
9 42 9 94 0 52 4 97 9 100 8 5 21 -107 21 -188 0 -29 3 -37 10 -26 19 31 24
-3 5 -38 -18 -33 -20 -50 -15 -156 3 -83 9 -121 17 -124 21 -6 33 45 33 144 0
88 -1 94 -20 94 -18 0 -16 6 19 53 80 106 104 196 74 281 -34 94 -52 67 -54
-79 0 -49 -4 -99 -9 -110 -6 -13 -9 21 -9 93 -1 109 -2 113 -21 107 -33 -11
-22 10 23 42 53 39 75 59 110 101 22 28 27 43 27 90 0 85 -53 172 -91 151 -28
-14 -24 -65 7 -102 19 -22 24 -37 19 -56 -9 -35 -31 -68 -54 -80 -18 -10 -18
-6 -13 100 l5 111 -22 -11 c-12 -7 -26 -9 -32 -5 -6 3 27 31 73 61 127 83 178
152 178 242 0 64 -9 86 -56 140 l-39 43 -38 -18 c-20 -10 -37 -24 -37 -31 0
-8 18 -31 40 -52 36 -34 40 -43 40 -87 0 -61 -23 -99 -82 -138 l-28 -18 0 146
c0 146 0 147 -22 144 -48 -6 -27 17 34 38 181 61 315 169 334 269 7 40 -14 93
-52 129 -16 14 -31 25 -34 25 -3 -1 -38 -6 -77 -12z"/>
<path d="M9073 6259 l-21 -21 24 -42 c13 -22 24 -50 24 -62 0 -23 -24 -48 -57
-58 -19 -6 -25 0 -43 41 -38 85 -85 114 -159 98 -44 -9 -91 -59 -91 -96 0 -42
23 -82 57 -99 15 -8 30 -16 33 -18 3 -2 -5 -11 -18 -20 -20 -16 -21 -21 -11
-50 13 -37 12 -37 42 -18 12 8 74 31 137 52 141 45 175 65 190 108 8 27 7 43
-6 82 -15 45 -62 123 -74 124 -3 0 -15 -9 -27 -21z m-129 -154 c26 -39 20 -60
-19 -72 -30 -9 -38 -8 -60 9 -14 11 -25 28 -25 38 0 50 76 69 104 25z"/>
<path d="M1650 6196 c-23 -63 -35 -54 154 -112 100 -31 126 -50 126 -94 0 -53
-25 -55 -162 -14 -162 48 -167 48 -184 2 -7 -21 -11 -38 -10 -38 2 0 70 -20
152 -45 168 -51 211 -55 249 -22 34 29 44 91 21 135 -21 41 -21 42 13 42 23 0
30 6 35 25 8 33 1 45 -29 45 -13 0 -75 15 -137 34 -240 73 -218 68 -228 42z"/>
<path d="M9126 5884 c-131 -24 -249 -50 -262 -59 -27 -17 -32 -60 -13 -114 12
-33 23 -37 62 -22 19 8 23 15 20 35 -7 33 0 35 402 109 33 6 64 14 69 18 5 4
5 24 2 43 -5 25 -12 36 -24 35 -9 0 -124 -21 -256 -45z"/>
<path d="M1382 5820 l-10 -40 37 -10 c20 -5 56 -12 79 -16 43 -7 44 -7 36 -38
-13 -53 -9 -111 10 -140 41 -63 233 -115 319 -87 72 24 107 108 68 161 -26 36
-26 37 3 44 25 6 42 38 31 56 -3 5 -17 10 -30 10 -14 0 -137 23 -275 50 -138
28 -252 50 -254 50 -2 0 -8 -18 -14 -40z m353 -117 c94 -19 115 -34 115 -80 0
-27 -5 -35 -27 -44 -46 -17 -161 8 -200 44 -25 22 -29 47 -13 78 13 23 23 23
125 2z"/>
<path d="M9265 5496 c-39 -17 -79 -64 -115 -136 -33 -65 -46 -78 -87 -86 -24
-5 -36 -1 -53 16 -19 19 -21 30 -18 96 l3 75 -39 10 c-27 7 -42 7 -49 0 -6 -6
-11 -46 -11 -89 0 -93 22 -145 74 -180 30 -20 45 -23 100 -20 86 5 118 28 176
129 51 88 81 114 118 105 33 -8 50 -54 41 -115 l-7 -50 38 -10 c49 -14 54 -6
54 87 0 79 -15 126 -49 157 -28 25 -132 32 -176 11z"/>
<path d="M1306 5370 c-3 -38 -9 -101 -12 -139 l-6 -69 43 -6 c44 -5 142 -15
386 -37 73 -7 136 -10 139 -6 6 6 35 269 31 273 -1 1 -22 4 -47 5 l-45 4 -7
-89 c-4 -49 -9 -91 -11 -93 -2 -2 -37 0 -77 3 l-73 7 7 82 6 83 -31 6 c-57 11
-57 11 -65 -74 -3 -44 -10 -82 -14 -85 -4 -2 -38 -2 -75 2 l-67 6 7 92 7 92
-32 7 c-56 11 -57 10 -64 -64z"/>
<path d="M9063 5110 c-119 -25 -164 -94 -131 -202 13 -45 24 -53 59 -40 21 8
24 15 24 63 0 52 2 55 35 71 41 21 149 24 183 7 31 -17 37 -28 37 -76 0 -38 2
-42 31 -48 40 -9 49 4 49 75 0 68 -23 110 -74 134 -43 20 -154 29 -213 16z"/>
<path d="M1808 4883 c-22 -3 -28 -10 -28 -28 0 -13 -6 -27 -12 -32 -7 -4 -119
-10 -248 -13 l-235 -5 -3 -42 -3 -43 178 1 c281 2 382 10 399 33 22 31 12 139
-13 135 -5 -1 -20 -4 -35 -6z"/>
<path d="M8939 4758 l-4 -45 134 -7 c74 -3 165 -6 203 -6 l68 0 0 45 0 45 -93
0 c-52 0 -141 3 -199 6 l-106 7 -3 -45z"/>
<path d="M9436 4787 c-13 -9 -17 -23 -14 -52 3 -38 5 -40 38 -43 56 -6 80 48
40 88 -23 23 -39 25 -64 7z"/>
<path d="M1833 4649 c-12 -4 -83 -13 -158 -18 -196 -15 -222 -33 -212 -151 6
-72 23 -120 43 -120 7 0 24 5 38 11 23 11 23 13 10 45 -29 70 -7 124 52 124
19 0 23 -7 29 -50 14 -99 79 -150 166 -131 49 11 76 34 84 72 8 37 -11 96 -36
109 -25 14 -24 27 1 35 15 5 20 15 20 40 0 39 -7 46 -37 34z m-39 -132 c13
-37 -2 -61 -42 -65 -36 -4 -62 26 -62 71 0 27 1 28 47 25 42 -3 49 -6 57 -31z"/>
<path d="M8991 4593 c-19 -10 -43 -30 -54 -44 -22 -30 -33 -101 -23 -151 10
-53 18 -60 52 -48 30 10 30 12 26 64 -2 29 1 63 7 74 12 23 88 49 101 35 5 -4
4 -50 -1 -102 -5 -52 -7 -97 -4 -99 3 -3 37 -7 77 -9 85 -5 111 6 146 57 19
28 23 45 20 86 -8 100 -76 146 -223 152 -72 2 -97 0 -124 -15z m247 -103 c43
-40 16 -100 -45 -100 l-33 0 0 53 c0 30 3 57 7 60 13 14 50 7 71 -13z"/>
<path d="M1642 4275 c-75 -21 -110 -41 -127 -75 -21 -41 -19 -72 10 -113 13
-20 21 -38 17 -41 -4 -2 -36 -9 -72 -16 -97 -17 -100 -18 -100 -50 0 -56 3
-57 83 -44 126 22 350 62 420 74 l69 12 -4 83 c-3 90 -16 118 -72 159 -35 26
-148 32 -224 11z m188 -95 c25 -25 27 -77 3 -84 -10 -3 -58 -12 -107 -20 -98
-17 -120 -12 -130 30 -14 53 53 90 172 93 30 1 48 -5 62 -19z"/>
<path d="M8890 4220 c-6 -23 -9 -44 -7 -46 3 -3 60 -16 128 -30 68 -13 134
-29 147 -34 34 -15 46 -57 26 -87 -15 -23 -20 -25 -67 -18 -29 3 -97 17 -152
29 -55 13 -103 21 -107 17 -4 -3 -8 -23 -10 -45 l-3 -39 135 -28 c227 -47 274
-38 286 53 5 35 2 54 -10 72 -22 35 -20 46 8 46 16 0 26 7 30 23 10 38 7 44
-26 50 -38 7 -303 63 -341 72 -24 6 -27 3 -37 -35z"/>
<path d="M3750 4190 c-176 -50 -303 -185 -356 -380 -25 -91 -25 -338 0 -430
61 -225 194 -346 415 -381 114 -17 309 20 376 72 l25 21 -2 256 -3 257 -195 0
-195 0 0 -40 c0 -46 -4 -45 170 -67 l100 -13 3 -158 3 -158 -38 -17 c-28 -12
-66 -17 -148 -17 -98 0 -116 3 -165 26 -141 66 -220 227 -220 442 1 346 204
527 520 463 36 -7 72 -16 82 -20 13 -6 19 3 32 47 9 30 16 60 16 65 0 48 -290
69 -420 32z"/>
<path d="M5936 4199 c-49 -5 -95 -14 -102 -20 -12 -10 -14 -109 -12 -588 l3
-576 70 0 70 0 3 218 2 217 114 0 c236 0 387 81 447 239 16 43 21 79 22 153 0
90 -2 102 -32 163 -81 164 -263 225 -585 194z m324 -153 c53 -20 107 -68 126
-113 24 -56 18 -161 -12 -222 -46 -92 -121 -125 -289 -125 l-110 -1 -3 234
c-2 181 1 237 10 243 21 15 228 2 278 -16z"/>
<path d="M6950 4196 c-101 -30 -163 -76 -203 -150 -32 -60 -31 -212 2 -275 42
-80 101 -125 274 -210 162 -80 229 -128 248 -178 17 -45 11 -118 -14 -154 -76
-113 -239 -130 -502 -54 -17 5 -24 -3 -42 -52 -18 -46 -20 -60 -10 -69 20 -20
112 -43 223 -55 302 -34 497 96 498 332 0 145 -81 237 -312 352 -102 50 -160
86 -193 118 -72 70 -78 140 -18 212 56 67 176 84 344 47 50 -11 96 -21 104
-23 15 -2 55 99 47 119 -15 38 -351 69 -446 40z"/>
<path d="M4447 4183 c-9 -8 -9 -1136 -1 -1157 5 -14 43 -16 325 -16 l319 0 0
70 0 70 -250 0 -250 0 0 200 0 200 225 0 225 0 0 70 0 70 -225 0 -225 0 0 185
0 185 245 0 245 0 0 65 0 65 -313 0 c-173 0 -317 -3 -320 -7z"/>
<path d="M5370 3600 l0 -590 70 0 70 0 0 590 0 590 -70 0 -70 0 0 -590z"/>
<path d="M1760 3891 c-116 -38 -160 -84 -160 -167 0 -90 63 -154 151 -154 92
0 219 53 254 107 25 38 24 110 -1 154 -46 77 -128 98 -244 60z m160 -91 c28
-28 25 -54 -10 -84 -33 -27 -116 -56 -162 -56 -29 0 -68 30 -68 54 0 31 43 66
103 85 80 26 112 26 137 1z"/>
<path d="M8863 3860 c-18 -4 -43 -15 -57 -23 -30 -20 -59 -92 -54 -138 3 -31
6 -34 39 -37 35 -3 36 -2 43 37 8 55 40 76 100 67 60 -9 128 -45 146 -78 13
-24 13 -30 -2 -62 -17 -35 -17 -35 9 -56 33 -26 42 -23 66 24 31 60 33 115 5
156 -47 70 -208 130 -295 110z"/>
<path d="M2028 3603 c-21 -14 -26 -22 -21 -44 3 -16 0 -30 -8 -35 -8 -5 -109
-49 -225 -99 l-212 -90 16 -38 c12 -33 18 -38 38 -33 12 3 113 44 224 91 111
47 205 85 210 85 5 0 23 12 40 27 27 22 31 31 26 56 -6 32 -43 97 -54 97 -4 0
-19 -8 -34 -17z"/>
<path d="M8734 3576 c-17 -8 -41 -24 -53 -37 -27 -29 -55 -122 -47 -155 6 -21
12 -25 39 -22 29 3 32 7 39 48 9 52 45 90 86 90 57 0 59 -11 18 -110 -42 -105
-43 -105 48 -136 94 -32 158 -4 191 83 15 38 16 52 6 84 -20 66 -92 122 -200
155 -57 17 -87 17 -127 0z m220 -147 c41 -32 28 -109 -19 -109 -26 0 -65 20
-65 32 1 21 38 98 48 98 5 0 21 -9 36 -21z"/>
<path d="M2003 3334 c-57 -30 -103 -61 -103 -67 0 -7 18 -43 39 -80 38 -68 38
-68 60 -50 19 16 21 22 12 46 -19 48 -13 61 41 91 l52 28 28 -31 c45 -50 36
-102 -28 -164 -45 -43 -141 -92 -201 -102 -60 -10 -106 15 -132 71 -12 24 -21
51 -21 59 0 18 -2 18 -51 3 -35 -10 -38 -14 -33 -37 33 -143 137 -219 263
-193 79 17 192 73 246 123 86 79 106 160 63 246 -25 51 -89 113 -116 113 -9 0
-63 -25 -119 -56z"/>
<path d="M8565 3284 c-86 -86 -84 -193 5 -239 45 -23 83 -18 154 20 36 19 72
32 80 29 34 -13 27 -53 -17 -101 -20 -22 -20 -23 -2 -43 10 -11 26 -20 36 -20
21 0 62 50 84 104 43 102 -77 192 -180 136 -95 -52 -93 -52 -115 -40 -29 16
-25 54 11 95 l32 36 -23 24 c-29 31 -33 31 -65 -1z"/>
<path d="M4082 2558 l3 -153 47 -3 c44 -3 49 -1 68 30 14 23 20 51 20 91 0 48
-4 62 -25 82 -27 28 -37 30 -66 15 -18 -10 -19 -7 -19 40 0 38 -4 50 -15 50
-13 0 -15 -21 -13 -152z m101 -7 c16 -65 -16 -133 -57 -118 -12 5 -16 20 -16
66 0 78 6 93 38 89 20 -2 28 -11 35 -37z"/>
<path d="M4381 2697 c-11 -15 -6 -47 9 -47 4 0 13 7 20 16 11 12 11 18 -2 30
-13 13 -16 13 -27 1z"/>
<path d="M5514 2696 c-8 -22 3 -49 19 -43 6 2 12 14 12 27 0 27 -22 39 -31 16z"/>
<path d="M6387 2703 c-11 -11 -8 -263 3 -284 11 -20 54 -26 65 -8 4 6 -2 13
-14 16 -20 5 -21 12 -21 144 0 109 -3 139 -13 139 -8 0 -17 -3 -20 -7z"/>
<path d="M6481 2692 c-8 -15 -7 -23 5 -33 18 -15 38 0 32 27 -5 25 -25 28 -37
6z"/>
<path d="M6599 2700 c-9 -5 -20 -26 -23 -45 -4 -19 -11 -35 -16 -35 -6 0 -10
-7 -10 -15 0 -8 4 -15 10 -15 5 0 11 -42 12 -92 2 -75 6 -93 18 -93 12 0 16
18 18 93 2 84 4 92 22 92 11 0 20 7 20 15 0 8 -9 15 -20 15 -15 0 -20 7 -20
25 0 20 5 25 26 25 19 0 25 5 22 18 -4 20 -35 26 -59 12z"/>
<path d="M6007 2663 c-4 -3 -7 -15 -7 -25 0 -10 -4 -18 -10 -18 -5 0 -10 -7
-10 -15 0 -8 5 -15 10 -15 6 0 10 -30 11 -67 2 -103 8 -117 52 -121 27 -2 37
1 37 12 0 8 -10 16 -22 18 -21 3 -23 9 -26 81 l-3 77 26 0 c32 0 29 23 -3 28
-16 2 -22 10 -22 28 0 23 -18 32 -33 17z"/>
<path d="M3847 2610 c-48 -38 -46 -174 4 -200 30 -16 83 -9 87 12 3 15 -2 17
-26 12 -33 -7 -62 15 -62 47 0 16 7 19 49 19 56 0 66 15 50 75 -16 55 -58 70
-102 35z m71 -47 c3 -20 -1 -23 -32 -23 -36 0 -41 5 -30 35 10 25 58 16 62
-12z"/>
<path d="M4305 2620 c-4 -6 -15 -8 -26 -5 -18 6 -19 0 -19 -104 0 -92 3 -111
15 -111 12 0 15 16 15 83 0 89 5 103 35 108 11 3 20 11 20 19 0 18 -30 26 -40
10z"/>
<path d="M4520 2620 c-8 -5 -23 -7 -32 -4 -11 3 -18 0 -19 -8 -3 -40 1 -202 5
-205 16 -16 26 18 26 85 0 88 7 105 41 100 23 -3 24 -7 27 -96 2 -82 5 -93 20
-90 32 6 29 180 -4 213 -18 17 -42 19 -64 5z"/>
<path d="M4684 2619 c-12 -6 -27 -22 -33 -35 -16 -36 -14 -120 5 -155 14 -28
19 -31 55 -27 40 4 46 -3 33 -36 -4 -11 -19 -16 -45 -16 -45 0 -55 -26 -14
-36 43 -11 79 9 93 52 13 38 13 236 0 249 -12 12 -74 14 -94 4z m66 -98 c0
-50 -4 -72 -16 -82 -38 -31 -75 45 -54 113 9 33 15 38 40 38 l30 0 0 -69z"/>
<path d="M4932 2614 c-36 -25 -29 -67 19 -104 28 -23 39 -39 37 -54 -3 -18 -9
-21 -41 -19 -31 2 -37 -1 -37 -17 0 -17 7 -20 44 -20 50 0 69 17 69 61 0 23
-10 40 -42 69 -48 44 -46 60 5 60 39 0 48 24 12 34 -34 9 -41 8 -66 -10z"/>
<path d="M5075 2605 c-47 -46 -32 -188 20 -201 39 -10 80 0 83 19 3 16 -1 17
-31 12 -29 -6 -37 -3 -51 16 -27 39 -20 48 37 51 46 3 52 6 55 27 12 84 -58
132 -113 76z m75 -36 c15 -27 10 -31 -33 -27 -31 3 -34 5 -26 26 11 28 45 29
59 1z"/>
<path d="M5288 2624 c-4 -4 -18 -7 -30 -8 -22 -1 -23 -4 -23 -106 0 -87 3
-105 15 -105 12 0 16 19 20 89 5 86 6 90 31 97 26 6 27 4 59 -92 19 -55 38
-98 44 -96 13 4 80 206 72 214 -15 16 -35 -13 -51 -76 l-19 -70 -23 74 c-13
41 -29 75 -36 75 -7 0 -21 3 -32 6 -11 3 -24 2 -27 -2z"/>
<path d="M5623 2615 c-44 -31 -53 -137 -17 -193 13 -19 22 -23 57 -20 30 2 43
8 45 20 3 15 -2 17 -26 12 -36 -7 -62 23 -62 73 0 56 16 83 49 83 34 0 51 18
30 31 -21 13 -52 11 -76 -6z"/>
<path d="M5774 2620 c-31 -12 -47 -62 -42 -125 6 -72 28 -97 82 -93 30 2 42 8
44 21 3 15 0 18 -17 12 -33 -10 -58 3 -70 35 l-10 30 55 0 54 0 0 45 c0 69
-38 99 -96 75z m60 -46 c11 -29 6 -34 -29 -34 -19 0 -35 4 -35 9 0 24 14 41
35 41 13 0 26 -7 29 -16z"/>
<path d="M6143 2615 c-45 -31 -54 -136 -17 -192 11 -18 24 -23 54 -23 35 0 43
5 60 33 36 58 20 170 -27 188 -33 12 -45 11 -70 -6z m67 -44 c5 -11 10 -38 10
-61 0 -51 -15 -80 -40 -80 -25 0 -40 29 -40 80 0 51 15 80 40 80 11 0 24 -9
30 -19z"/>
<path d="M6697 2610 c-48 -38 -46 -174 3 -200 27 -14 76 -12 89 3 15 19 4 27
-29 21 -31 -7 -60 16 -60 47 0 16 7 19 49 19 56 0 65 12 55 67 -6 34 -36 63
-65 63 -9 0 -28 -9 -42 -20z m71 -47 c3 -20 -1 -23 -32 -23 -38 0 -47 15 -24
38 20 20 53 10 56 -15z"/>
<path d="M3560 2609 c0 -14 50 -202 55 -207 11 -11 24 15 41 78 10 38 20 67
23 65 3 -3 14 -35 26 -72 11 -37 25 -68 31 -70 5 -2 22 43 37 101 32 121 31
116 13 116 -16 0 -18 -6 -37 -94 l-13 -59 -20 73 c-20 70 -41 97 -51 68 -2 -7
-12 -40 -21 -73 l-17 -60 -9 35 c-5 19 -14 52 -19 73 -6 21 -16 37 -24 37 -8
0 -15 -5 -15 -11z"/>
<path d="M4380 2510 c0 -91 3 -110 15 -110 12 0 15 19 15 110 0 91 -3 110 -15
110 -12 0 -15 -19 -15 -110z"/>
<path d="M5514 2607 c-3 -8 -3 -56 -2 -108 3 -80 6 -94 21 -97 15 -3 17 7 17
107 0 93 -2 111 -15 111 -9 0 -18 -6 -21 -13z"/>
<path d="M6480 2510 c0 -91 3 -110 15 -110 12 0 15 19 15 110 0 91 -3 110 -15
110 -12 0 -15 -19 -15 -110z"/>
<path d="M6844 2435 c-7 -18 3 -35 21 -35 21 0 28 19 15 35 -16 19 -29 19 -36
0z"/>
<path d="M6944 2435 c-7 -18 3 -35 21 -35 18 0 26 25 12 39 -15 15 -27 14 -33
-4z"/>
<path d="M7034 2435 c-7 -18 3 -35 21 -35 21 0 28 19 15 35 -16 19 -29 19 -36
0z"/>
<path d="M7114 2435 c-7 -18 3 -35 21 -35 18 0 26 25 12 39 -15 15 -27 14 -33
-4z"/>
<path d="M7187 2444 c-15 -15 -7 -45 11 -42 9 2 17 12 17 22 0 20 -16 31 -28
20z"/>
</g>
</svg>
